<svg width="19" height="18" viewBox="0 0 19 18" fill="none" xmlns="http://www.w3.org/2000/svg">
<rect width="19" height="18" fill="white"/>
<path d="M10.2563 6.29356L10.4146 6.95336L10.9979 6.60669L13.8599 4.90574L12.0844 7.55205L11.6725 8.16596L12.3956 8.31969L15.5956 9L12.3956 9.68031L11.6725 9.83404L12.0844 10.448L13.8599 13.0943L10.9979 11.3933L10.4146 11.0466L10.2563 11.7064L9.5 14.8575L8.74373 11.7064L8.58538 11.0466L8.00208 11.3933L5.14012 13.0943L6.91563 10.448L7.32753 9.83404L6.6044 9.68031L3.40443 9L6.6044 8.31969L7.32753 8.16596L6.91563 7.55205L5.14012 4.90574L8.00208 6.60669L8.58538 6.95336L8.74373 6.29356L9.5 3.14247L10.2563 6.29356Z" stroke="#30981D"/>
</svg>
