<svg width="148" height="39" viewBox="0 0 148 39" fill="none" xmlns="http://www.w3.org/2000/svg">
<path d="M11.622 22.718C12.5927 22.8913 13.416 23.4027 14.092 24.252C14.768 25.1013 15.106 26.0633 15.106 27.138C15.106 28.0567 14.8633 28.8887 14.378 29.634C13.91 30.362 13.2253 30.9427 12.324 31.376C11.4227 31.792 10.374 32 9.178 32H1.95V13.93H8.84C10.0707 13.93 11.128 14.138 12.012 14.554C12.896 14.97 13.5633 15.5333 14.014 16.244C14.4647 16.9373 14.69 17.7173 14.69 18.584C14.69 19.624 14.4127 20.4907 13.858 21.184C13.3033 21.8773 12.558 22.3887 11.622 22.718ZM4.914 21.522H8.58C9.55067 21.522 10.3047 21.3053 10.842 20.872C11.3967 20.4213 11.674 19.78 11.674 18.948C11.674 18.1333 11.3967 17.5007 10.842 17.05C10.3047 16.582 9.55067 16.348 8.58 16.348H4.914V21.522ZM8.918 29.582C9.92333 29.582 10.712 29.3393 11.284 28.854C11.856 28.3687 12.142 27.6927 12.142 26.826C12.142 25.942 11.8387 25.24 11.232 24.72C10.6253 24.2 9.81933 23.94 8.814 23.94H4.914V29.582H8.918ZM31.457 24.486C31.457 25.0233 31.4223 25.5087 31.353 25.942H20.407C20.4936 27.086 20.9183 28.0047 21.681 28.698C22.4436 29.3913 23.3796 29.738 24.489 29.738C26.0836 29.738 27.2103 29.0707 27.869 27.736H31.067C30.6336 29.0533 29.845 30.1367 28.701 30.986C27.5743 31.818 26.1703 32.234 24.489 32.234C23.1196 32.234 21.889 31.9307 20.797 31.324C19.7223 30.7 18.873 29.8333 18.249 28.724C17.6423 27.5973 17.339 26.2973 17.339 24.824C17.339 23.3507 17.6336 22.0593 18.223 20.95C18.8296 19.8233 19.6703 18.9567 20.745 18.35C21.837 17.7433 23.085 17.44 24.489 17.44C25.841 17.44 27.0456 17.7347 28.103 18.324C29.1603 18.9133 29.9836 19.7453 30.573 20.82C31.1623 21.8773 31.457 23.0993 31.457 24.486ZM28.363 23.55C28.3456 22.458 27.9556 21.5827 27.193 20.924C26.4303 20.2653 25.4856 19.936 24.359 19.936C23.3363 19.936 22.461 20.2653 21.733 20.924C21.005 21.5653 20.5716 22.4407 20.433 23.55H28.363ZM37.3378 19.754C37.7712 19.026 38.3432 18.4627 39.0538 18.064C39.7818 17.648 40.6398 17.44 41.6278 17.44V20.508H40.8738C39.7125 20.508 38.8285 20.8027 38.2218 21.392C37.6325 21.9813 37.3378 23.004 37.3378 24.46V32H34.3738V17.674H37.3378V19.754ZM49.5523 32.234C48.4257 32.234 47.4117 32.0347 46.5103 31.636C45.6263 31.22 44.9243 30.6653 44.4043 29.972C43.8843 29.2613 43.607 28.4727 43.5723 27.606H46.6403C46.6923 28.2127 46.9783 28.724 47.4983 29.14C48.0357 29.5387 48.703 29.738 49.5003 29.738C50.3323 29.738 50.9737 29.582 51.4243 29.27C51.8923 28.9407 52.1263 28.5247 52.1263 28.022C52.1263 27.4847 51.8663 27.086 51.3463 26.826C50.8437 26.566 50.0377 26.28 48.9283 25.968C47.8537 25.6733 46.9783 25.3873 46.3023 25.11C45.6263 24.8327 45.037 24.408 44.5343 23.836C44.049 23.264 43.8063 22.51 43.8063 21.574C43.8063 20.8113 44.0317 20.118 44.4823 19.494C44.933 18.8527 45.5743 18.35 46.4063 17.986C47.2557 17.622 48.2263 17.44 49.3183 17.44C50.9477 17.44 52.2563 17.856 53.2443 18.688C54.2497 19.5027 54.787 20.6207 54.8563 22.042H51.8923C51.8403 21.4007 51.5803 20.8893 51.1123 20.508C50.6443 20.1267 50.0117 19.936 49.2143 19.936C48.4343 19.936 47.8363 20.0833 47.4203 20.378C47.0043 20.6727 46.7963 21.0627 46.7963 21.548C46.7963 21.9293 46.935 22.25 47.2123 22.51C47.4897 22.77 47.8277 22.978 48.2263 23.134C48.625 23.2727 49.2143 23.4547 49.9943 23.68C51.0343 23.9573 51.8837 24.2433 52.5423 24.538C53.2183 24.8153 53.799 25.2313 54.2843 25.786C54.7697 26.3407 55.021 27.0773 55.0383 27.996C55.0383 28.8107 54.813 29.5387 54.3623 30.18C53.9117 30.8213 53.2703 31.324 52.4383 31.688C51.6237 32.052 50.6617 32.234 49.5523 32.234Z" fill="#30981D"/>
<path d="M57.253 24.772C57.253 23.3333 57.5477 22.0593 58.137 20.95C58.7437 19.8407 59.5583 18.9827 60.581 18.376C61.621 17.752 62.765 17.44 64.013 17.44C65.1397 17.44 66.119 17.6653 66.951 18.116C67.8003 18.5493 68.4763 19.0953 68.979 19.754V17.674H71.969V32H68.979V29.868C68.4763 30.544 67.7917 31.1073 66.925 31.558C66.0583 32.0087 65.0703 32.234 63.961 32.234C62.7303 32.234 61.6037 31.922 60.581 31.298C59.5583 30.6567 58.7437 29.7727 58.137 28.646C57.5477 27.502 57.253 26.2107 57.253 24.772ZM68.979 24.824C68.979 23.836 68.771 22.978 68.355 22.25C67.9563 21.522 67.4277 20.9673 66.769 20.586C66.1103 20.2047 65.3997 20.014 64.637 20.014C63.8743 20.014 63.1637 20.2047 62.505 20.586C61.8463 20.95 61.309 21.496 60.893 22.224C60.4943 22.9347 60.295 23.784 60.295 24.772C60.295 25.76 60.4943 26.6267 60.893 27.372C61.309 28.1173 61.8463 28.6893 62.505 29.088C63.181 29.4693 63.8917 29.66 64.637 29.66C65.3997 29.66 66.1103 29.4693 66.769 29.088C67.4277 28.7067 67.9563 28.152 68.355 27.424C68.771 26.6787 68.979 25.812 68.979 24.824ZM93.2041 17.44C94.3308 17.44 95.3361 17.674 96.2201 18.142C97.1214 18.61 97.8234 19.3033 98.3261 20.222C98.8461 21.1407 99.1061 22.25 99.1061 23.55V32H96.1681V23.992C96.1681 22.7093 95.8474 21.73 95.2061 21.054C94.5648 20.3607 93.6894 20.014 92.5801 20.014C91.4708 20.014 90.5868 20.3607 89.9281 21.054C89.2868 21.73 88.9661 22.7093 88.9661 23.992V32H86.0281V23.992C86.0281 22.7093 85.7074 21.73 85.0661 21.054C84.4248 20.3607 83.5494 20.014 82.4401 20.014C81.3308 20.014 80.4468 20.3607 79.7881 21.054C79.1468 21.73 78.8261 22.7093 78.8261 23.992V32H75.8621V17.674H78.8261V19.312C79.3114 18.7227 79.9268 18.2633 80.6721 17.934C81.4174 17.6047 82.2148 17.44 83.0641 17.44C84.2081 17.44 85.2308 17.6827 86.1321 18.168C87.0334 18.6533 87.7268 19.3553 88.2121 20.274C88.6454 19.4073 89.3214 18.7227 90.2401 18.22C91.1588 17.7 92.1468 17.44 93.2041 17.44ZM101.89 24.772C101.89 23.3333 102.184 22.0593 102.774 20.95C103.38 19.8407 104.195 18.9827 105.218 18.376C106.258 17.752 107.402 17.44 108.65 17.44C109.776 17.44 110.756 17.6653 111.588 18.116C112.437 18.5493 113.113 19.0953 113.616 19.754V17.674H116.606V32H113.616V29.868C113.113 30.544 112.428 31.1073 111.562 31.558C110.695 32.0087 109.707 32.234 108.598 32.234C107.367 32.234 106.24 31.922 105.218 31.298C104.195 30.6567 103.38 29.7727 102.774 28.646C102.184 27.502 101.89 26.2107 101.89 24.772ZM113.616 24.824C113.616 23.836 113.408 22.978 112.992 22.25C112.593 21.522 112.064 20.9673 111.406 20.586C110.747 20.2047 110.036 20.014 109.274 20.014C108.511 20.014 107.8 20.2047 107.142 20.586C106.483 20.95 105.946 21.496 105.53 22.224C105.131 22.9347 104.932 23.784 104.932 24.772C104.932 25.76 105.131 26.6267 105.53 27.372C105.946 28.1173 106.483 28.6893 107.142 29.088C107.818 29.4693 108.528 29.66 109.274 29.66C110.036 29.66 110.747 29.4693 111.406 29.088C112.064 28.7067 112.593 28.152 112.992 27.424C113.408 26.6787 113.616 25.812 113.616 24.824Z" fill="black"/>
<path d="M121.695 32.182C121.157 32.182 120.707 32 120.343 31.636C119.979 31.272 119.797 30.8213 119.797 30.284C119.797 29.7467 119.979 29.296 120.343 28.932C120.707 28.568 121.157 28.386 121.695 28.386C122.215 28.386 122.657 28.568 123.021 28.932C123.385 29.296 123.567 29.7467 123.567 30.284C123.567 30.8213 123.385 31.272 123.021 31.636C122.657 32 122.215 32.182 121.695 32.182Z" fill="#152C5B"/>
<path d="M89.732 7.144C89.732 7.568 89.632 7.968 89.432 8.344C89.232 8.72 88.912 9.028 88.472 9.268C88.032 9.5 87.468 9.616 86.78 9.616H85.268V13H83.9V4.66H86.78C87.42 4.66 87.96 4.772 88.4 4.996C88.848 5.212 89.18 5.508 89.396 5.884C89.62 6.26 89.732 6.68 89.732 7.144ZM86.78 8.5C87.3 8.5 87.688 8.384 87.944 8.152C88.2 7.912 88.328 7.576 88.328 7.144C88.328 6.232 87.812 5.776 86.78 5.776H85.268V8.5H86.78ZM90.5807 9.664C90.5807 9 90.7167 8.412 90.9887 7.9C91.2687 7.388 91.6447 6.992 92.1167 6.712C92.5967 6.424 93.1247 6.28 93.7007 6.28C94.2207 6.28 94.6727 6.384 95.0567 6.592C95.4487 6.792 95.7607 7.044 95.9927 7.348V6.388H97.3727V13H95.9927V12.016C95.7607 12.328 95.4447 12.588 95.0447 12.796C94.6447 13.004 94.1887 13.108 93.6767 13.108C93.1087 13.108 92.5887 12.964 92.1167 12.676C91.6447 12.38 91.2687 11.972 90.9887 11.452C90.7167 10.924 90.5807 10.328 90.5807 9.664ZM95.9927 9.688C95.9927 9.232 95.8967 8.836 95.7047 8.5C95.5207 8.164 95.2767 7.908 94.9727 7.732C94.6687 7.556 94.3407 7.468 93.9887 7.468C93.6367 7.468 93.3087 7.556 93.0047 7.732C92.7007 7.9 92.4527 8.152 92.2607 8.488C92.0767 8.816 91.9847 9.208 91.9847 9.664C91.9847 10.12 92.0767 10.52 92.2607 10.864C92.4527 11.208 92.7007 11.472 93.0047 11.656C93.3167 11.832 93.6447 11.92 93.9887 11.92C94.3407 11.92 94.6687 11.832 94.9727 11.656C95.2767 11.48 95.5207 11.224 95.7047 10.888C95.8967 10.544 95.9927 10.144 95.9927 9.688ZM100.538 4.12V13H99.1695V4.12H100.538ZM108.394 9.532C108.394 9.78 108.378 10.004 108.346 10.204H103.294C103.334 10.732 103.53 11.156 103.882 11.476C104.234 11.796 104.666 11.956 105.178 11.956C105.914 11.956 106.434 11.648 106.738 11.032H108.214C108.014 11.64 107.65 12.14 107.122 12.532C106.602 12.916 105.954 13.108 105.178 13.108C104.546 13.108 103.978 12.968 103.474 12.688C102.978 12.4 102.586 12 102.298 11.488C102.018 10.968 101.878 10.368 101.878 9.688C101.878 9.008 102.014 8.412 102.286 7.9C102.566 7.38 102.954 6.98 103.45 6.7C103.954 6.42 104.53 6.28 105.178 6.28C105.802 6.28 106.358 6.416 106.846 6.688C107.334 6.96 107.714 7.344 107.986 7.84C108.258 8.328 108.394 8.892 108.394 9.532ZM106.966 9.1C106.958 8.596 106.778 8.192 106.426 7.888C106.074 7.584 105.638 7.432 105.118 7.432C104.646 7.432 104.242 7.584 103.906 7.888C103.57 8.184 103.37 8.588 103.306 9.1H106.966ZM112.14 13.108C111.62 13.108 111.152 13.016 110.736 12.832C110.328 12.64 110.004 12.384 109.764 12.064C109.524 11.736 109.396 11.372 109.38 10.972H110.796C110.82 11.252 110.952 11.488 111.192 11.68C111.44 11.864 111.748 11.956 112.116 11.956C112.5 11.956 112.796 11.884 113.004 11.74C113.22 11.588 113.328 11.396 113.328 11.164C113.328 10.916 113.208 10.732 112.968 10.612C112.736 10.492 112.364 10.36 111.852 10.216C111.356 10.08 110.952 9.948 110.64 9.82C110.328 9.692 110.056 9.496 109.824 9.232C109.6 8.968 109.488 8.62 109.488 8.188C109.488 7.836 109.592 7.516 109.8 7.228C110.008 6.932 110.304 6.7 110.688 6.532C111.08 6.364 111.528 6.28 112.032 6.28C112.784 6.28 113.388 6.472 113.844 6.856C114.308 7.232 114.556 7.748 114.588 8.404H113.22C113.196 8.108 113.076 7.872 112.86 7.696C112.644 7.52 112.352 7.432 111.984 7.432C111.624 7.432 111.348 7.5 111.156 7.636C110.964 7.772 110.868 7.952 110.868 8.176C110.868 8.352 110.932 8.5 111.06 8.62C111.188 8.74 111.344 8.836 111.528 8.908C111.712 8.972 111.984 9.056 112.344 9.16C112.824 9.288 113.216 9.42 113.52 9.556C113.832 9.684 114.1 9.876 114.324 10.132C114.548 10.388 114.664 10.728 114.672 11.152C114.672 11.528 114.568 11.864 114.36 12.16C114.152 12.456 113.856 12.688 113.472 12.856C113.096 13.024 112.652 13.108 112.14 13.108ZM117.746 7.504V11.164C117.746 11.412 117.802 11.592 117.914 11.704C118.034 11.808 118.234 11.86 118.514 11.86H119.354V13H118.274C117.658 13 117.186 12.856 116.858 12.568C116.53 12.28 116.366 11.812 116.366 11.164V7.504H115.586V6.388H116.366V4.744H117.746V6.388H119.354V7.504H117.746ZM121.311 5.512C121.063 5.512 120.855 5.428 120.687 5.26C120.519 5.092 120.435 4.884 120.435 4.636C120.435 4.388 120.519 4.18 120.687 4.012C120.855 3.844 121.063 3.76 121.311 3.76C121.551 3.76 121.755 3.844 121.923 4.012C122.091 4.18 122.175 4.388 122.175 4.636C122.175 4.884 122.091 5.092 121.923 5.26C121.755 5.428 121.551 5.512 121.311 5.512ZM121.983 6.388V13H120.615V6.388H121.983ZM127.115 6.28C127.635 6.28 128.099 6.388 128.507 6.604C128.923 6.82 129.247 7.14 129.479 7.564C129.711 7.988 129.827 8.5 129.827 9.1V13H128.471V9.304C128.471 8.712 128.323 8.26 128.027 7.948C127.731 7.628 127.327 7.468 126.815 7.468C126.303 7.468 125.895 7.628 125.591 7.948C125.295 8.26 125.147 8.712 125.147 9.304V13H123.779V6.388H125.147V7.144C125.371 6.872 125.655 6.66 125.999 6.508C126.351 6.356 126.723 6.28 127.115 6.28ZM131.116 9.664C131.116 9 131.252 8.412 131.524 7.9C131.804 7.388 132.18 6.992 132.652 6.712C133.132 6.424 133.66 6.28 134.236 6.28C134.756 6.28 135.208 6.384 135.592 6.592C135.984 6.792 136.296 7.044 136.528 7.348V6.388H137.908V13H136.528V12.016C136.296 12.328 135.98 12.588 135.58 12.796C135.18 13.004 134.724 13.108 134.212 13.108C133.644 13.108 133.124 12.964 132.652 12.676C132.18 12.38 131.804 11.972 131.524 11.452C131.252 10.924 131.116 10.328 131.116 9.664ZM136.528 9.688C136.528 9.232 136.432 8.836 136.24 8.5C136.056 8.164 135.812 7.908 135.508 7.732C135.204 7.556 134.876 7.468 134.524 7.468C134.172 7.468 133.844 7.556 133.54 7.732C133.236 7.9 132.988 8.152 132.796 8.488C132.612 8.816 132.52 9.208 132.52 9.664C132.52 10.12 132.612 10.52 132.796 10.864C132.988 11.208 133.236 11.472 133.54 11.656C133.852 11.832 134.18 11.92 134.524 11.92C134.876 11.92 135.204 11.832 135.508 11.656C135.812 11.48 136.056 11.224 136.24 10.888C136.432 10.544 136.528 10.144 136.528 9.688Z" fill="#30981D"/>
<path d="M132.256 21.2936L132.415 21.9534L132.998 21.6067L135.86 19.9057L134.084 22.552L133.672 23.166L134.396 23.3197L137.596 24L134.396 24.6803L133.672 24.834L134.084 25.448L135.86 28.0943L132.998 26.3933L132.415 26.0466L132.256 26.7064L131.5 29.8575L130.744 26.7064L130.585 26.0466L130.002 26.3933L127.14 28.0943L128.916 25.448L129.328 24.834L128.604 24.6803L125.404 24L128.604 23.3197L129.328 23.166L128.916 22.552L127.14 19.9057L130.002 21.6067L130.585 21.9534L130.744 21.2936L131.5 18.1425L132.256 21.2936Z" stroke="#30981D"/>
</svg>
